<svg xmlns="http://www.w3.org/2000/svg" xmlns:xlink="http://www.w3.org/1999/xlink" version="1.1" width="256" height="256" viewBox="0 0 256 256" xml:space="preserve">
<g style="stroke: none; stroke-width: 0; stroke-dasharray: none; stroke-linecap: butt; stroke-linejoin: miter; stroke-miterlimit: 10; fill: none; fill-rule: nonzero; opacity: 1;" transform="translate(1.4065934065934016 1.4065934065934016) scale(2.81 2.81)">
	<path d="M 70.166 90 H 19.834 C 8.897 90 0 81.103 0 70.166 V 19.834 C 0 8.897 8.897 0 19.834 0 h 50.332 C 81.103 0 90 8.897 90 19.834 v 50.332 C 90 81.103 81.103 90 70.166 90 z M 19.834 4 C 11.103 4 4 11.103 4 19.834 v 50.332 C 4 78.896 11.103 86 19.834 86 h 50.332 C 78.896 86 86 78.896 86 70.166 V 19.834 C 86 11.103 78.896 4 70.166 4 H 19.834 z" style="stroke: none; stroke-width: 1; stroke-dasharray: none; stroke-linecap: butt; stroke-linejoin: miter; stroke-miterlimit: 10; fill: rgb(0,0,0); fill-rule: nonzero; opacity: 1;" transform=" matrix(1 0 0 1 0 0) " stroke-linecap="round"/>
	<path d="M 30.782 34.621 c -1.761 4.749 -3.526 9.498 -5.269 14.251 c -0.147 -0.774 -0.267 -1.556 -0.436 -2.321 c -0.68 -3.37 -1.316 -6.745 -2.01 -10.107 c -0.138 -0.965 -0.992 -1.792 -1.988 -1.787 c -2.21 -0.098 -4.424 0.013 -6.634 -0.044 c -0.965 0.018 -1.992 -0.169 -2.89 0.293 c 2.032 0.671 4.091 1.316 5.936 2.423 c 1.641 6.047 3.184 12.121 4.838 18.164 c 1.868 0 3.735 -0.027 5.603 0.031 c 2.97 -6.923 5.683 -13.953 8.591 -20.903 C 34.611 34.635 32.699 34.644 30.782 34.621 z" style="stroke: none; stroke-width: 1; stroke-dasharray: none; stroke-linecap: butt; stroke-linejoin: miter; stroke-miterlimit: 10; fill: rgb(0,0,0); fill-rule: nonzero; opacity: 1;" transform=" matrix(1 0 0 1 0 0) " stroke-linecap="round"/>
	<path d="M 38.67 34.612 c -1.085 6.968 -2.299 13.913 -3.33 20.885 c 1.796 0.004 3.588 0.004 5.38 0 c 1.08 -6.968 2.245 -13.922 3.353 -20.885 C 42.272 34.626 40.471 34.626 38.67 34.612 z" style="stroke: none; stroke-width: 1; stroke-dasharray: none; stroke-linecap: butt; stroke-linejoin: miter; stroke-miterlimit: 10; fill: rgb(0,0,0); fill-rule: nonzero; opacity: 1;" transform=" matrix(1 0 0 1 0 0) " stroke-linecap="round"/>
	<path d="M 58.071 45.142 c -1.565 -1.854 -4.184 -2.241 -5.847 -3.944 c -0.809 -0.907 0.151 -2.117 1.125 -2.348 c 2.063 -0.529 4.278 -0.125 6.176 0.787 c 0.267 -1.525 0.525 -3.055 0.689 -4.598 c -3.571 -1.174 -7.79 -1.236 -11.018 0.885 c -2.223 1.445 -3.606 4.438 -2.561 6.994 c 0.84 2.023 2.855 3.153 4.727 4.073 c 0.965 0.538 2.205 1.045 2.486 2.232 c 0.076 0.996 -0.8 1.694 -1.65 1.979 c -2.503 0.556 -5.109 -0.027 -7.355 -1.187 c -0.28 1.556 -0.511 3.121 -0.787 4.678 c 2.597 1.072 5.483 1.245 8.253 0.956 c 2.45 -0.329 4.967 -1.476 6.274 -3.668 C 59.818 49.904 59.885 46.916 58.071 45.142 z" style="stroke: none; stroke-width: 1; stroke-dasharray: none; stroke-linecap: butt; stroke-linejoin: miter; stroke-miterlimit: 10; fill: rgb(0,0,0); fill-rule: nonzero; opacity: 1;" transform=" matrix(1 0 0 1 0 0) " stroke-linecap="round"/>
	<path d="M 74.074 34.639 c -1.654 0.031 -3.317 -0.067 -4.971 0.049 c -1.125 0.058 -1.836 1.103 -2.197 2.063 c -2.601 6.261 -5.234 12.508 -7.839 18.764 c 1.885 -0.004 3.771 -0.004 5.656 -0.004 c 0.396 -1.045 0.778 -2.099 1.147 -3.153 c 2.303 0.013 4.607 0.009 6.914 0.009 c 0.213 1.054 0.436 2.103 0.671 3.148 c 1.663 -0.004 3.326 -0.004 4.989 -0.009 C 76.986 48.552 75.554 41.593 74.074 34.639 z M 67.439 48.063 c 1.005 -2.583 1.828 -5.242 2.952 -7.777 c 0.334 2.623 0.987 5.194 1.525 7.781 C 70.423 48.068 68.933 48.068 67.439 48.063 z" style="stroke: none; stroke-width: 1; stroke-dasharray: none; stroke-linecap: butt; stroke-linejoin: miter; stroke-miterlimit: 10; fill: rgb(0,0,0); fill-rule: nonzero; opacity: 1;" transform=" matrix(1 0 0 1 0 0) " stroke-linecap="round"/>
</g>
</svg>